<?xml version="1.0" encoding="utf-8"?>
<!-- Generator: Adobe Illustrator 17.0.0, SVG Export Plug-In . SVG Version: 6.00 Build 0)  -->
<!DOCTYPE svg PUBLIC "-//W3C//DTD SVG 1.1//EN" "http://www.w3.org/Graphics/SVG/1.1/DTD/svg11.dtd">
<svg version="1.1" id="Layer_1" xmlns="http://www.w3.org/2000/svg" xmlns:xlink="http://www.w3.org/1999/xlink" x="0px" y="0px"
	 width="841.89px" height="595.28px" viewBox="0 0 841.89 595.28" enable-background="new 0 0 841.89 595.28" xml:space="preserve">
<g>
	<g>
		<polygon fill="#ED1C24" points="462.216,468.365 525.148,468.365 453.024,354.534 525.148,240.703 462.216,240.703 
			390.092,354.534 		"/>
		<polyline fill="#A50F12" points="390.092,354.53 462.212,240.703 525.144,240.703 421.498,404.306 		"/>
		<polyline opacity="0.5" fill="#D71920" points="390.09,354.619 462.214,468.452 525.146,468.452 421.461,305.105 		"/>
	</g>
	<g>
		<polygon fill="#ED1C24" points="374.068,126.915 311.136,126.915 383.26,240.746 311.136,354.577 374.068,354.577 
			446.192,240.746 		"/>
		<polyline fill="#A50F12" points="446.192,240.75 374.072,354.577 311.14,354.577 414.786,190.974 		"/>
		<polyline opacity="0.5" fill="#D71920" points="446.194,240.661 374.07,126.828 311.138,126.828 414.823,290.175 		"/>
	</g>
	<g>
		<path d="M102.375,186.04h11.246v67.554c0,13.006-3.724,23.41-11.17,31.214c-6.732,7.191-14.97,10.787-24.711,10.787
			c-9.691,0-17.928-3.596-24.711-10.787c-7.396-7.803-11.093-18.208-11.093-31.214v-5.279h11.246v5.279
			c0,10.15,2.652,18.158,7.957,24.023c4.641,4.999,10.175,7.497,16.602,7.497c6.477,0,12.036-2.499,16.678-7.497
			c5.304-5.865,7.957-13.872,7.957-24.023V186.04z"/>
		<path d="M211.28,201.876c10.226,10.711,15.339,23.666,15.339,38.864c0,15.148-5.114,28.077-15.339,38.788
			c-10.227,10.711-22.557,16.066-36.99,16.066c-14.435,0-26.752-5.355-36.952-16.066c-10.201-10.711-15.301-23.64-15.301-38.788
			c0-15.198,5.1-28.154,15.301-38.864c10.2-10.711,22.517-16.066,36.952-16.066C188.723,185.81,201.053,191.166,211.28,201.876z
			 M174.29,196.674c-11.578,0-21.46,4.298-29.646,12.891c-8.186,8.595-12.279,18.987-12.279,31.176
			c0,12.139,4.093,22.506,12.279,31.099c8.186,8.595,18.067,12.891,29.646,12.891c11.577,0,21.472-4.296,29.684-12.891
			c8.211-8.593,12.317-18.96,12.317-31.099c0-12.189-4.106-22.581-12.317-31.176C195.762,200.972,185.867,196.674,174.29,196.674z"
			/>
		<path d="M294.326,234.314c10.864,6.937,16.296,16.219,16.296,27.848c0,8.569-3.443,16.296-10.328,23.181
			c-6.835,6.835-15.174,10.252-25.017,10.252h-40.624V186.04h44.602c7.14,0,13.159,2.448,18.055,7.344
			c4.947,4.948,7.421,11.374,7.421,19.279C304.731,221.997,301.262,229.215,294.326,234.314z M275.276,285.114
			c6.579,0,12.215-2.346,16.908-7.038c4.794-4.845,7.191-10.149,7.191-15.913c0-5.763-2.398-11.067-7.191-15.913
			c-4.693-4.692-10.328-7.038-16.908-7.038h-23.181V228.73h27.159c3.825,0,7.165-1.427,10.022-4.284
			c2.805-2.805,4.208-6.732,4.208-11.782c0-5.1-1.403-9.052-4.208-11.858c-2.857-2.856-6.197-4.284-10.022-4.284h-33.356v88.593
			H275.276z"/>
	</g>
	<g>
		<path d="M536.394,347.233h42.996v11.246h-42.996v50.493h-11.246v-67.171c0-13.006,3.698-23.384,11.093-31.137
			c6.782-7.242,14.765-10.864,23.946-10.864h34.963v10.481h-34.963c-5.918,0-11.196,2.5-15.836,7.497
			c-5.306,5.866-7.957,13.874-7.957,24.023V347.233z"/>
		<path d="M642.201,299.8c10.76,0,20.044,4.208,27.848,12.623c7.599,8.059,11.399,17.979,11.399,29.76v67.171h-11.246v-49.881
			h-56.078v49.881h-11.246v-67.171c0-11.782,3.825-21.701,11.476-29.76C622.105,304.008,631.387,299.8,642.201,299.8z
			 M670.125,342.26c0-8.976-2.781-16.55-8.339-22.722c-5.661-6.12-12.215-9.181-19.662-9.181c-7.448,0-14,3.06-19.662,9.181
			c-5.559,6.172-8.339,13.746-8.339,22.722v6.732h56.002V342.26z"/>
		<path d="M694.759,299.8h11.246v109.555h-11.246V299.8z"/>
		<path d="M799.954,336.216c0,3.01-0.715,6.453-2.142,10.328c-2.857,7.6-7.754,13.363-14.689,17.29
			c5.151,3.265,9.206,7.473,12.164,12.623c3.06,5.305,4.59,11.017,4.59,17.137v15.76h-11.246v-15.76
			c0-6.732-2.346-12.495-7.038-17.29c-4.641-4.692-10.202-7.089-16.678-7.191h-27.236v-10.481h22.645
			c11.678-0.153,19.917-3.774,24.711-10.864c2.448-3.774,3.672-7.624,3.672-11.552c0-7.701-2.729-13.974-8.186-18.82
			c-5.355-4.743-12.292-7.115-20.809-7.115c-7.907,0-14.74,2.882-20.503,8.645c-5.712,5.713-8.569,12.649-8.569,20.809v69.619
			h-11.246v-69.619c0-10.965,3.927-20.375,11.782-28.23c7.803-7.803,17.316-11.705,28.536-11.705
			c11.731,0,21.395,3.494,28.995,10.481C796.205,317.065,799.954,325.71,799.954,336.216z"/>
	</g>
</g>
</svg>
